<svg version="1.1" xmlns="http://www.w3.org/2000/svg" xmlns:xlink="http://www.w3.org/1999/xlink" preserveAspectRatio="xMidYMid meet" viewBox="0 0 640 640" width="640" height="640"><defs><path d="M132.17 344.35L320 452.17L320 180.87L0 180.87L132.17 344.35Z" id="a1hzYVs7qR"></path><path d="M320 452.17L507.83 344.35L640 180.87L320 180.87L320 452.17Z" id="dkeWJQvYp"></path><path d="M90.44 480L347.83 480L320 0L90.44 0L90.44 480Z" id="h6dYjeMqil"></path><path d="M549.56 0C549.56 0 549.56 0 549.56 0C549.56 288 549.56 448 549.56 480C549.56 480 549.56 480 549.56 480C411.83 480 335.3 480 320 480C320 480 320 480 320 480C320 192 320 32 320 0C320 0 320 0 320 0C457.74 0 534.26 0 549.56 0Z" id="a85yWTjrO"></path><path d="M0 640L163.21 553.04L270.77 410.44L0 180.87L0 640Z" id="bmSoDyHeR"></path><path d="M640 640L476.79 553.04L369.23 410.44L640 180.87L640 640Z" id="e6jyh6zrF"></path><path d="M0 640C21.33 640 128 640 320 640L347.83 546.09L320 452.17L270.77 410.44C126.36 532.87 36.1 609.39 0 640Z" id="ahklturOy"></path><path d="M320 452.17L320 640L640 640L369.23 410.44L320 452.17Z" id="c3cJg3OPz"></path><path d="M394.18 79.38C378.26 95.79 356.28 105.95 331.98 105.95C331.98 55.85 371.37 15.23 419.95 15.23C419.95 40.29 410.1 62.96 394.18 79.38Z" id="a3Vf47wObn"></path><path d="M355.14 217.11C365.18 217.11 374.47 221.52 382.09 229.01C389.71 221.52 399 217.11 409.04 217.11C434.9 217.11 455.86 246.26 455.86 282.22C455.86 318.18 434.9 347.33 409.04 347.33C407.54 347.33 406.05 347.23 404.58 347.04C389.62 345.06 374.56 345.06 359.6 347.04C358.13 347.23 356.65 347.33 355.14 347.33C341.14 347.33 328.58 338.78 320 325.24C312.73 313.76 308.33 298.71 308.33 282.22C308.33 265.73 312.73 250.67 320 239.2C328.58 225.66 341.14 217.11 355.14 217.11Z" id="biBe5fRxA"></path><path d="M349.49 282.22C349.49 265.73 353.89 250.67 361.16 239.2C365.2 232.81 370.14 227.53 375.7 223.74C369.49 219.5 362.52 217.11 355.14 217.11C341.14 217.11 328.57 225.66 320 239.2C312.73 250.67 308.32 265.73 308.32 282.22C308.32 298.71 312.73 313.76 320 325.24C328.57 338.78 341.14 347.33 355.14 347.33C356.65 347.33 358.13 347.23 359.6 347.04C368.24 345.9 376.93 345.44 385.6 345.61C375.97 342.48 367.48 335.22 361.16 325.24C353.89 313.76 349.49 298.71 349.49 282.22Z" id="a2T7l4vK2a"></path><path d="M310.32 336.86C302.99 343.49 294.26 347.33 284.87 347.33C283.35 347.33 281.87 347.24 280.41 347.04C265.45 345.06 250.38 345.06 235.43 347.04C233.96 347.24 232.47 347.33 230.96 347.33C205.1 347.33 184.14 318.18 184.14 282.22C184.14 246.26 205.1 217.12 230.96 217.12C241 217.12 250.29 221.52 257.91 229.01C265.54 221.52 274.82 217.12 284.87 217.12C294.26 217.12 302.99 220.96 310.31 227.58C313.91 230.82 317.17 234.74 320 239.2C312.73 250.67 308.33 265.73 308.33 282.22C308.33 298.71 312.73 313.76 320 325.24C317.17 329.7 313.92 333.62 310.32 336.86Z" id="c6qKhvmn"></path><path d="M225.3 282.22C225.3 265.73 229.71 250.67 236.98 239.2C241.02 232.81 245.96 227.53 251.52 223.74C245.31 219.5 238.34 217.11 230.96 217.11C216.96 217.11 204.39 225.66 195.81 239.2C188.55 250.67 184.14 265.73 184.14 282.22C184.14 298.71 188.55 313.76 195.82 325.24C204.39 338.78 216.96 347.33 230.96 347.33C232.46 347.33 233.95 347.23 235.42 347.04C244.06 345.9 252.75 345.44 261.42 345.61C251.79 342.48 243.3 335.22 236.98 325.24C229.71 313.76 225.3 298.71 225.3 282.22Z" id="d1rx0ZX2P"></path><path d="M310.32 336.86C306.72 333.62 303.46 329.7 300.63 325.24C293.36 313.76 288.95 298.71 288.95 282.22C288.95 265.73 293.36 250.67 300.63 239.2C303.45 234.74 306.71 230.82 310.31 227.58C313.91 230.82 317.17 234.74 320 239.2C312.73 250.67 308.33 265.73 308.33 282.22C308.33 298.71 312.73 313.76 320 325.24C317.17 329.7 313.92 333.62 310.32 336.86Z" id="apGh32ODo"></path><path d="M434.63 302.07C431.36 301.35 429.28 298.03 429.97 294.66C430.81 290.6 431.24 286.42 431.24 282.22C431.24 263.85 421.54 242.5 409.04 242.5C405.7 242.5 402.99 239.71 402.99 236.26C402.99 232.81 405.7 230.01 409.04 230.01C427.64 230.01 443.35 253.92 443.35 282.22C443.35 287.29 442.83 292.35 441.81 297.26C441.2 300.2 438.69 302.21 435.9 302.21C435.48 302.21 435.05 302.16 434.63 302.07Z" id="dKa00q7gX"></path><path d="M331.98 105.95C331.98 55.85 371.37 15.23 419.95 15.23C402.35 33.38 340.78 96.88 331.98 105.95Z" id="fxU2JGqn9"></path><path d="M283.82 228.37C280.48 228.37 277.77 231.17 277.77 234.61C277.77 238.06 280.48 240.86 283.82 240.86C287.16 240.86 289.87 238.06 289.87 234.61C289.87 231.17 287.16 228.37 283.82 228.37Z" id="a63Kfv7pNB"></path><path d="M428.92 308.44C425.58 308.44 422.87 311.24 422.87 314.68C422.87 318.13 425.58 320.93 428.92 320.93C432.26 320.93 434.97 318.13 434.97 314.68C434.97 311.24 432.26 308.44 428.92 308.44Z" id="deWEjaDgF"></path><path d="M409.04 210.87C401.3 210.87 393.81 213.09 386.94 217.35C384.91 202.89 379.53 176.37 365.59 147.74C359.19 134.61 351.68 122.51 343.14 111.51C389.74 105.8 426 64.81 426 15.23C426 11.78 423.29 8.99 419.94 8.99C372.35 8.99 332.91 45.65 326.77 93.03C323.99 90.28 321.13 87.61 318.19 85.05C293.94 63.94 264.25 49.4 229.94 41.84C226.67 41.12 223.45 43.27 222.75 46.65C222.06 50.02 224.14 53.33 227.41 54.05C259.65 61.16 287.49 74.73 310.17 94.4C313.65 97.42 317.01 100.6 320.26 103.91C297.9 119.85 279.29 145.35 266.16 178.18C259.69 194.33 255.91 208.74 253.89 217.88C246.8 213.28 239.01 210.88 230.96 210.88C216.49 210.88 203.01 218.54 192.99 232.47C183.38 245.83 178.09 263.5 178.09 282.22C178.09 300.94 183.38 318.62 192.99 331.98C203 345.91 216.49 353.57 230.96 353.57C232.72 353.57 234.48 353.46 236.19 353.23C250.61 351.33 265.22 351.33 279.63 353.23C281.34 353.46 283.11 353.57 284.87 353.57C297.95 353.57 310.41 347.12 320.01 335.62C329.66 347.22 341.99 353.57 355.14 353.57C356.88 353.57 358.64 353.46 360.37 353.23C374.78 351.33 389.4 351.33 403.81 353.23C405.54 353.46 407.3 353.57 409.04 353.57C423.51 353.57 437 345.9 447.01 331.98C456.62 318.61 461.91 300.94 461.91 282.22C461.91 263.5 456.62 245.83 447.01 232.46C437 218.54 423.51 210.87 409.04 210.87ZM338.28 99.46C341.34 58.04 373.49 24.88 413.65 21.72C410.59 63.14 378.44 96.3 338.28 99.46ZM354.56 152.93C366.78 177.86 372.12 201.52 374.4 215.72C368.33 212.53 361.83 210.87 355.14 210.87C341.99 210.87 329.66 217.22 320.01 228.83C310.41 217.32 297.95 210.87 284.87 210.87C278.7 210.87 272.7 212.28 267.04 215.01C269.13 206.56 272.43 195.24 277.35 182.94C286.21 160.8 302.2 131.25 328.66 113.12C338.69 124.92 347.36 138.23 354.56 152.93ZM281.17 340.84C265.74 338.81 250.09 338.81 234.65 340.85C233.45 341.01 232.21 341.09 230.96 341.09C208.48 341.09 190.2 314.68 190.2 282.22C190.2 249.76 208.48 223.36 230.96 223.36C239.08 223.36 246.96 226.88 253.74 233.53C256.08 235.82 259.75 235.82 262.09 233.53C268.87 226.88 276.74 223.36 284.87 223.36C295.21 223.36 305.2 229.19 312.76 239.47C305.96 251.73 302.27 266.61 302.27 282.22C302.27 297.84 305.96 312.71 312.76 324.98C305.21 335.25 295.21 341.09 284.87 341.09C283.62 341.09 282.38 341.01 281.17 340.84ZM405.35 340.84C397.63 339.83 389.86 339.32 382.09 339.32C374.32 339.32 366.55 339.83 358.83 340.84C357.61 341 356.37 341.09 355.14 341.09C343.42 341.09 332.85 333.9 325.41 322.43C325.2 322 324.95 321.6 324.65 321.23C318.27 310.84 314.38 297.18 314.38 282.22C314.38 249.76 332.66 223.36 355.14 223.36C363.26 223.36 371.14 226.87 377.92 233.53C380.26 235.82 383.93 235.82 386.26 233.53C393.04 226.87 400.92 223.36 409.04 223.36C431.52 223.36 449.8 249.76 449.8 282.22C449.8 314.68 431.52 341.09 409.04 341.09C407.81 341.09 406.57 341 405.35 340.84Z" id="bptXxBo1s"></path></defs><g><g><g><g><use xlink:href="#a1hzYVs7qR" opacity="1" fill="#77c0bc" fill-opacity="1"></use><g><use xlink:href="#a1hzYVs7qR" opacity="1" fill-opacity="0" stroke="#000000" stroke-width="1" stroke-opacity="0"></use></g></g><g><use xlink:href="#dkeWJQvYp" opacity="1" fill="#55a7a2" fill-opacity="1"></use><g><use xlink:href="#dkeWJQvYp" opacity="1" fill-opacity="0" stroke="#000000" stroke-width="1" stroke-opacity="0"></use></g></g><g><use xlink:href="#h6dYjeMqil" opacity="1" fill="#f2ebd9" fill-opacity="1"></use><g><use xlink:href="#h6dYjeMqil" opacity="1" fill-opacity="0" stroke="#000000" stroke-width="1" stroke-opacity="0"></use></g></g><g><use xlink:href="#a85yWTjrO" opacity="1" fill="#f9dca7" fill-opacity="1"></use><g><use xlink:href="#a85yWTjrO" opacity="1" fill-opacity="0" stroke="#000000" stroke-width="1" stroke-opacity="0"></use></g></g><g><use xlink:href="#bmSoDyHeR" opacity="1" fill="#c1e8e6" fill-opacity="1"></use><g><use xlink:href="#bmSoDyHeR" opacity="1" fill-opacity="0" stroke="#000000" stroke-width="1" stroke-opacity="0"></use></g></g><g><use xlink:href="#e6jyh6zrF" opacity="1" fill="#98d9d5" fill-opacity="1"></use><g><use xlink:href="#e6jyh6zrF" opacity="1" fill-opacity="0" stroke="#000000" stroke-width="1" stroke-opacity="0"></use></g></g><g><use xlink:href="#ahklturOy" opacity="1" fill="#98d9d5" fill-opacity="1"></use><g><use xlink:href="#ahklturOy" opacity="1" fill-opacity="0" stroke="#000000" stroke-width="1" stroke-opacity="0"></use></g></g><g><use xlink:href="#c3cJg3OPz" opacity="1" fill="#77c0bc" fill-opacity="1"></use><g><use xlink:href="#c3cJg3OPz" opacity="1" fill-opacity="0" stroke="#000000" stroke-width="1" stroke-opacity="0"></use></g></g></g><g><g><use xlink:href="#a3Vf47wObn" opacity="1" fill="#9ad14b" fill-opacity="1"></use><g><use xlink:href="#a3Vf47wObn" opacity="1" fill-opacity="0" stroke="#000000" stroke-width="1" stroke-opacity="0"></use></g></g><g><use xlink:href="#biBe5fRxA" opacity="1" fill="#f95428" fill-opacity="1"></use><g><use xlink:href="#biBe5fRxA" opacity="1" fill-opacity="0" stroke="#000000" stroke-width="1" stroke-opacity="0"></use></g></g><g><use xlink:href="#a2T7l4vK2a" opacity="1" fill="#e54728" fill-opacity="1"></use><g><use xlink:href="#a2T7l4vK2a" opacity="1" fill-opacity="0" stroke="#000000" stroke-width="1" stroke-opacity="0"></use></g></g><g><use xlink:href="#c6qKhvmn" opacity="1" fill="#f95428" fill-opacity="1"></use><g><use xlink:href="#c6qKhvmn" opacity="1" fill-opacity="0" stroke="#000000" stroke-width="1" stroke-opacity="0"></use></g></g><g><use xlink:href="#d1rx0ZX2P" opacity="1" fill="#e54728" fill-opacity="1"></use><g><use xlink:href="#d1rx0ZX2P" opacity="1" fill-opacity="0" stroke="#000000" stroke-width="1" stroke-opacity="0"></use></g></g><g><use xlink:href="#apGh32ODo" opacity="1" fill="#e54728" fill-opacity="1"></use><g><use xlink:href="#apGh32ODo" opacity="1" fill-opacity="0" stroke="#000000" stroke-width="1" stroke-opacity="0"></use></g></g><g><use xlink:href="#dKa00q7gX" opacity="1" fill="#ffffff" fill-opacity="1"></use><g><use xlink:href="#dKa00q7gX" opacity="1" fill-opacity="0" stroke="#000000" stroke-width="1" stroke-opacity="0"></use></g></g><g><use xlink:href="#fxU2JGqn9" opacity="1" fill="#90bc42" fill-opacity="1"></use><g><use xlink:href="#fxU2JGqn9" opacity="1" fill-opacity="0" stroke="#000000" stroke-width="1" stroke-opacity="0"></use></g></g><g><use xlink:href="#a63Kfv7pNB" opacity="1" fill="#ffffff" fill-opacity="1"></use><g><use xlink:href="#a63Kfv7pNB" opacity="1" fill-opacity="0" stroke="#000000" stroke-width="1" stroke-opacity="0"></use></g></g><g><use xlink:href="#deWEjaDgF" opacity="1" fill="#ffffff" fill-opacity="1"></use><g><use xlink:href="#deWEjaDgF" opacity="1" fill-opacity="0" stroke="#000000" stroke-width="1" stroke-opacity="0"></use></g></g><g><use xlink:href="#bptXxBo1s" opacity="1" fill="#333333" fill-opacity="1"></use><g><use xlink:href="#bptXxBo1s" opacity="1" fill-opacity="0" stroke="#000000" stroke-width="1" stroke-opacity="0"></use></g></g></g></g></g></svg>